# xmcd CD database file
#
# Track frame offsets:
#	225
#	24465
#	44200
#	60404
#	81082
#	97486
#	118042
#	137278
#	152062
#	172473
#
# Disc length: 2626 seconds
#
# Revision: 3
# Processed by: cddbd v1.5.2PL0 Copyright (c) Steve Scherf et al.
# Submitted via: CDex 1.40Beta9
#
DISCID=8d0a3f0a
DTITLE=Kervansaray CD1 - Sufi Music of Turkey
DYEAR=2000
DGENRE=Classical
TTITLE0=Yâ ilâhi
TTITLE1=Kervansaray
TTITLE2=Muâllâ Gavisi
TTITLE3=Uyan Ey Gözlerim
TTITLE4=Allah hu Allah
TTITLE5=Çağrı
TTITLE6=İpek Yolu
TTITLE7=Can Yine
TTITLE8=Salât-u Selâm
TTITLE9=Potbori - Mest-û Hayranım, Gelin Gidelim
EXTD=YEAR: 2000 ID3G: 32
EXTT0=
EXTT1=
EXTT2=
EXTT3=
EXTT4=
EXTT5=
EXTT6=
EXTT7=
EXTT8=
EXTT9=
PLAYORDER=
